<?xml version="1.0" standalone="no"?>
<!DOCTYPE svg PUBLIC "-//W3C//DTD SVG 20010904//EN"
 "http://www.w3.org/TR/2001/REC-SVG-20010904/DTD/svg10.dtd">
<svg version="1.0" xmlns="http://www.w3.org/2000/svg"
 width="600.000000pt" height="600.000000pt" viewBox="0 0 600.000000 600.000000"
 preserveAspectRatio="xMidYMid meet">
<metadata>
Created by potrace 1.14, written by Peter Selinger 2001-2017
</metadata>
<g transform="translate(0.000000,600.000000) scale(0.100000,-0.100000)"
fill="#000000" stroke="none">
<path d="M2987 3150 c-154 -367 -641 -1507 -646 -1512 -3 -3 -150 310 -325
695 -176 386 -324 708 -329 715 -13 17 -487 18 -487 1 0 -15 1133 -2319 1140
-2319 3 0 151 334 330 741 179 407 327 742 330 744 3 2 152 -331 330 -740 179
-410 327 -745 330 -745 7 0 1140 2304 1140 2319 0 17 -474 16 -487 -1 -5 -7
-153 -329 -329 -715 -175 -385 -322 -698 -325 -695 -4 4 -147 340 -319 747
-172 407 -318 753 -325 770 l-13 29 -15 -34z"/>
</g>
</svg>
