<?xml version="1.0" encoding="utf-8"?>
<!-- Generator: Adobe Illustrator 20.1.0, SVG Export Plug-In . SVG Version: 6.00 Build 0)  -->
<svg version="1.1" id="レイヤー_1" xmlns="http://www.w3.org/2000/svg" xmlns:xlink="http://www.w3.org/1999/xlink" x="0px"
	 y="0px" width="265px" height="145px" viewBox="0 0 265 145" style="enable-background:new 0 0 265 145;" xml:space="preserve">
<g>
	<path d="M34.4,82.1l18.7-44l18.6,44l18.5-40.4h13.8l-32.3,65.7L53.2,64.9l-18.7,42.5L2.1,41.7H16L34.4,82.1z"/>
	<path d="M124,105.2h-12.2V41.7H124V105.2z"/>
	<path d="M125.8,12.6c0,4.6-3.8,8.3-8.4,8.3c-4.6,0-8.4-3.7-8.4-8.3c0-4.8,3.8-8.6,8.4-8.6C122,4.1,125.8,7.9,125.8,12.6z"/>
	<path d="M142.5,53.9v2.5v48.8h12.2V56.4v-2.5h19.9v2.5v48.8h12.2V56.4v-2.5h13.5l22.3,40.4l-25,47.2h13.8l51.4-99.9h-13.7l-20,40.3
		l-21.4-40.3h-7h-7.3h-6.7V25.6c0-5.5,4.5-9.9,9.9-9.9V3.4c-12.2,0-22.1,10.6-22.1,22.8v15.4h-19.9V25.6c0-5.5,4.5-9.9,9.9-9.9V3.4
		c-12.2,0-22.1,10.6-22.1,22.8v15.4"/>
</g>
</svg>
